<?xml version="1.0" encoding="iso-8859-1"?>
<!-- Generator: Adobe Illustrator 19.0.0, SVG Export Plug-In . SVG Version: 6.00 Build 0)  -->
<svg fill="white" version="1.1" id="Layer_1" xmlns="http://www.w3.org/2000/svg" xmlns:xlink="http://www.w3.org/1999/xlink" x="0px" y="0px"
	 viewBox="0 0 206.216 206.216" style="enable-background:new 0 0 206.216 206.216;" xml:space="preserve">
<g>
	<g>
		<g>
			<path d="M201.363,109.774c-0.278-0.944-7.242-23.557-46.656-62.969C115.296,7.392,92.682,0.428,91.739,0.15
				c-1.799-0.525-3.686,0.364-4.429,2.073l-82.3,189.42c-0.606,1.391-0.298,3.011,0.776,4.085c1.07,1.07,2.69,1.384,4.085,0.776
				l38.97-16.93v2.616c0,7.136,5.802,12.941,12.932,12.941s12.932-5.806,12.932-12.941v-13.854l14.78-6.421v31.36
				c0,7.136,5.802,12.941,12.932,12.941s12.932-5.806,12.932-12.941v-42.598l83.942-36.473
				C201,113.462,201.888,111.562,201.363,109.774z M110.181,144.865c-1.349,0.586-2.223,1.916-2.223,3.388v45.021
				c0,3.062-2.486,5.551-5.542,5.551c-3.056,0-5.542-2.49-5.542-5.551V156.28c0-1.245-0.628-2.407-1.669-3.09
				c-0.612-0.401-1.317-0.604-2.026-0.604c-0.5,0-1.001,0.101-1.472,0.307l-22.169,9.632c-1.349,0.586-2.223,1.916-2.223,3.388
				v16.277c0,3.062-2.486,5.551-5.542,5.551c-3.056,0-5.542-2.49-5.542-5.551v-8.25c0-1.245-0.628-2.407-1.669-3.09
				c-1.043-0.684-2.358-0.794-3.498-0.298l-35.54,15.442L81.293,34.615c3.323-0.399,12.573-0.488,21.065,8.867
				c4.831,5.324,7.318,9.979,9.511,14.087c3.13,5.865,5.835,10.93,13.47,12.595l1.846,0.397c9.307,1.988,16.66,3.56,23.364,14.906
				c2.544,4.303,4.864,9.091,7.108,13.723c3.937,8.121,7.47,15.357,11.891,19.88L110.181,144.865z M177.144,115.77
				c-4.434-2.486-8.706-11.279-12.837-19.803c-2.309-4.766-4.698-9.695-7.397-14.26c-8.352-14.136-18.433-16.29-28.183-18.374
				l-1.813-0.39c-4.133-0.902-5.519-3.222-8.526-8.857c-2.277-4.263-5.109-9.569-10.56-15.573
				c-8.306-9.147-17.387-11.19-23.285-11.381l8.128-18.707c7.161,3.154,26.866,13.659,56.811,43.605
				c29.763,29.763,40.386,49.62,43.589,56.818L177.144,115.77z"/>
			<path d="M85.789,76.892c-10.186,0-18.475,8.288-18.475,18.475s8.288,18.475,18.475,18.475s18.475-8.288,18.475-18.475
				S95.975,76.892,85.789,76.892z M85.789,106.451c-6.112,0-11.085-4.972-11.085-11.085c0-6.113,4.972-11.085,11.085-11.085
				s11.085,4.972,11.085,11.085C96.874,101.479,91.901,106.451,85.789,106.451z"/>
			<path d="M59.924,124.926c-8.15,0-14.78,6.63-14.78,14.78s6.63,14.78,14.78,14.78c8.15,0,14.78-6.63,14.78-14.78
				C74.704,131.556,68.074,124.926,59.924,124.926z M59.924,147.095c-4.075,0-7.39-3.314-7.39-7.39c0-4.076,3.314-7.39,7.39-7.39
				c4.075,0,7.39,3.314,7.39,7.39C67.314,143.781,64,147.095,59.924,147.095z"/>
			<path d="M131.975,84.282c-11.206,0-20.322,9.116-20.322,20.322s9.116,20.322,20.322,20.322c11.206,0,20.322-9.116,20.322-20.322
				S143.181,84.282,131.975,84.282z M131.975,117.536c-7.13,0-12.932-5.802-12.932-12.932s5.802-12.932,12.932-12.932
				c7.13,0,12.932,5.802,12.932,12.932S139.105,117.536,131.975,117.536z"/>
		</g>
	</g>
</g>
<g>
</g>
<g>
</g>
<g>
</g>
<g>
</g>
<g>
</g>
<g>
</g>
<g>
</g>
<g>
</g>
<g>
</g>
<g>
</g>
<g>
</g>
<g>
</g>
<g>
</g>
<g>
</g>
<g>
</g>
</svg>
